# xmcd CD database file
#
# Track frame offsets:
#	150
#	16511
#	33371
#	53900
#	72796
#	89887
#	106403
#	122108
#	138138
#	150854
#	166451
#	177438
#	190864
#	208795
#	226010
#	238913
#	257730
#	271468
#	285402
#
# Disc length: 3987 seconds
#
# Revision: 0
# Processed by: cddbd v1.5.2PL0 Copyright (c) Steve Scherf et al.
# Submitted via: CDex 1.51
#
DISCID=030f9113
DTITLE=Various Artist - Hamburger Clubszene 97
DYEAR=1997
DGENRE=Blues
TTITLE0=The Robert Patrick Holmes Band - Doesn't Matter Jane
TTITLE1=Bluesplasma - T-Bone Shuffle
TTITLE2=Bullfrog Taylor Band - Roadhouse Blues
TTITLE3=Break Even - Rain
TTITLE4=Best Of - Fading Like A Flower
TTITLE5=Pedestrians - It's Allright Mother
TTITLE6=Sleepin' Silence - 1944
TTITLE7=Soul Attack - Soulsister
TTITLE8=Fleece Moore - Messing With The Kid
TTITLE9=The Pale Men - Dark Lites
TTITLE10=Town Fools - Wild Years
TTITLE11=Daddy Long Legs - Individuality
TTITLE12=The Chotalls - Gib mir Rum
TTITLE13=Volker Frank - Billard Cafe
TTITLE14=The Radio - Hänschen Klein
TTITLE15=So! - Wenn der Mond erbebt
TTITLE16=Fiasko Mexicana - Dschingis Khan
TTITLE17=Midlife Crisis Country Band - Heartache Big As Texas
TTITLE18=Inside Blues - Call My Number
EXTD=YEAR: 1997
EXTT0=
EXTT1=
EXTT2=
EXTT3=
EXTT4=
EXTT5=
EXTT6=
EXTT7=
EXTT8=
EXTT9=
EXTT10=
EXTT11=
EXTT12=
EXTT13=
EXTT14=
EXTT15=
EXTT16=
EXTT17=
EXTT18=
PLAYORDER=
